<svg xmlns="http://www.w3.org/2000/svg" width="240" height="168" viewBox="0 0 240 168" fill="none">
  <g stroke="#0a0a0a" stroke-width="2.5" stroke-linecap="round" stroke-linejoin="round">
    <!-- three stablecoins, the middle one lime -->
    <circle cx="86" cy="84" r="34" fill="#ffffff"/>
    <path d="M86 64v40M77 71h12a7 7 0 0 1 0 14h-8a7 7 0 0 0 0 14h13" stroke-width="2"/>
    <circle cx="120" cy="84" r="34" fill="#c8f94c"/>
    <circle cx="120" cy="84" r="34" fill="none"/>
    <path d="M120 64v40M111 71h12a7 7 0 0 1 0 14h-8a7 7 0 0 0 0 14h13" stroke-width="2"/>
    <circle cx="154" cy="84" r="34" fill="#ffffff"/>
    <path d="M154 64v40M145 71h12a7 7 0 0 1 0 14h-8a7 7 0 0 0 0 14h13" stroke-width="2"/>
  </g>
  <path d="M196 44c1 5 2 6 7 7-5 1-6 2-7 7-1-5-2-6-7-7 5-1 6-2 7-7Z" fill="#0a0a0a"/>
  <circle cx="48" cy="120" r="5" fill="#0a0a0a"/>
</svg>
