<svg xmlns="http://www.w3.org/2000/svg" width="240" height="168" viewBox="0 0 240 168" fill="none">
  <g stroke="#0a0a0a" stroke-width="2.5" stroke-linecap="round" stroke-linejoin="round">
    <!-- one source (CSV / treasury) -->
    <rect x="26" y="56" width="46" height="56" rx="8" fill="#ffffff"/>
    <path d="M36 72h26M36 84h26M36 96h18" stroke-width="1.8"/>
    <!-- fan-out connectors to many payees -->
    <path d="M72 84c34 0 40-44 78-44"/>
    <path d="M72 84h78"/>
    <path d="M72 84c34 0 40 44 78 44"/>
    <!-- payee nodes -->
    <circle cx="166" cy="40" r="14" fill="#ffffff"/>
    <circle cx="166" cy="40" r="4.5"/>
    <path d="M158.5 49a7.5 7.5 0 0 1 15 0"/>
    <circle cx="166" cy="84" r="14" fill="#c8f94c" stroke="#0a0a0a"/>
    <circle cx="166" cy="80" r="4.5"/>
    <path d="M158.5 93a7.5 7.5 0 0 1 15 0"/>
    <circle cx="166" cy="128" r="14" fill="#ffffff"/>
    <circle cx="166" cy="128" r="4.5"/>
    <path d="M158.5 137a7.5 7.5 0 0 1 15 0"/>
  </g>
  <path d="M206 60c1 5 2 6 7 7-5 1-6 2-7 7-1-5-2-6-7-7 5-1 6-2 7-7Z" fill="#0a0a0a"/>
</svg>
